<?xml version="1.0" encoding="utf-8"?>
<!-- Generator: Adobe Illustrator 24.0.0, SVG Export Plug-In . SVG Version: 6.00 Build 0)  -->
<svg version="1.1" id="Layer_1" xmlns="http://www.w3.org/2000/svg" xmlns:xlink="http://www.w3.org/1999/xlink" x="0px" y="0px"
	 viewBox="0 0 1366 768" style="enable-background:new 0 0 1366 768;" xml:space="preserve">
<style type="text/css">
	.st0{fill:#6900FF;}
	.st1{fill:url(#SVGID_1_);}
	.st2{fill:#9700FF;}
	.st3{fill:none;stroke:url(#SVGID_2_);stroke-width:10;stroke-miterlimit:10;}
	.st4{fill:none;stroke:url(#SVGID_3_);stroke-width:10;stroke-miterlimit:10;}
</style>
<g>
	<path class="st0" d="M42.43,385.94c0.09,0,0.18,0,0.27,0c12.81,0.12,23.03,8.97,26.03,22.53l19.14,86.4
		c2.88,13.01,12.66,21.55,24.91,21.74c0.14,0,0.29,0,0.43,0c11.99,0,21.78-8.12,25.02-20.79l84.34-330.26
		c3.34-13.1,13.55-21.55,26.02-21.55c0.03,0,0.06,0,0.1,0c12.53,0.04,22.73,8.58,26,21.76l24.58,99.12
		c3.14,12.66,12.93,20.9,24.93,21c0.07,0,0.14,0,0.21,0c11.88,0,21.67-8.04,24.97-20.53L419.65,0H0v475.38l16.33-67.51
		C19.56,394.52,29.79,385.94,42.43,385.94z"/>
</g>
<g>
	<linearGradient id="SVGID_1_" gradientUnits="userSpaceOnUse" x1="0" y1="384" x2="1366" y2="384">
		<stop  offset="0" style="stop-color:#3700FF"/>
		<stop  offset="0.6104" style="stop-color:#5900FF"/>
		<stop  offset="1" style="stop-color:#6900FF"/>
	</linearGradient>
	<path class="st1" d="M420.68,0l-70.34,265.61c-3.43,12.95-13.6,21.28-25.94,21.28c-0.07,0-0.14,0-0.22,0
		c-12.48-0.1-22.64-8.64-25.89-21.76l-24.58-99.12c-3.15-12.71-12.98-20.96-25.03-21c-0.03,0-0.06,0-0.09,0
		c-12,0-21.83,8.15-25.05,20.79L139.2,496.07c-3.39,13.29-13.82,21.75-26.43,21.54c-12.73-0.2-22.89-9.05-25.87-22.53l-19.14-86.4
		c-2.9-13.09-12.74-21.63-25.06-21.74c-0.09,0-0.17,0-0.26,0c-12.16,0-22.01,8.28-25.13,21.17L0,479.63V768h1366V0H420.68z"/>
</g>
<path class="st2" d="M42.43,386.94c0.09,0,0.17,0,0.26,0c12.32,0.12,22.16,8.65,25.06,21.74l19.14,86.4
	c2.99,13.48,13.14,22.32,25.87,22.53c12.61,0.21,23.03-8.25,26.43-21.54l84.34-330.27c3.23-12.64,13.06-20.79,25.05-20.79
	c0.03,0,0.06,0,0.09,0c12.05,0.04,21.88,8.28,25.03,21l24.58,99.12c3.25,13.12,13.42,21.66,25.89,21.76c0.07,0,0.14,0,0.22,0
	c12.34,0,22.51-8.33,25.94-21.28L420.68,0h-1.03l-70.27,265.35c-3.31,12.49-13.1,20.53-24.97,20.53c-0.07,0-0.14,0-0.21,0
	c-12-0.09-21.79-8.34-24.93-21l-24.58-99.12c-3.27-13.17-13.47-21.71-26-21.76c-0.03,0-0.06,0-0.1,0
	c-12.47,0-22.68,8.45-26.02,21.55l-84.34,330.26c-3.24,12.67-13.03,20.79-25.02,20.79c-0.14,0-0.28,0-0.43,0
	c-12.25-0.2-22.03-8.73-24.91-21.74l-19.14-86.4c-3-13.56-13.22-22.4-26.03-22.53c-0.09,0-0.18,0-0.27,0
	c-12.64,0-22.87,8.58-26.1,21.93L0,475.38v4.25l17.31-71.52C20.42,395.22,30.27,386.94,42.43,386.94z"/>
<linearGradient id="SVGID_2_" gradientUnits="userSpaceOnUse" x1="-68.8598" y1="325.948" x2="448.8334" y2="325.948">
	<stop  offset="0.2" style="stop-color:#FFFFFF;stop-opacity:0"/>
	<stop  offset="0.2192" style="stop-color:#DFF3FF;stop-opacity:0.032"/>
	<stop  offset="0.2457" style="stop-color:#B9E6FF;stop-opacity:0.0762"/>
	<stop  offset="0.2744" style="stop-color:#99DAFF;stop-opacity:0.124"/>
	<stop  offset="0.3052" style="stop-color:#7FD0FF;stop-opacity:0.1753"/>
	<stop  offset="0.3389" style="stop-color:#6AC9FF;stop-opacity:0.2315"/>
	<stop  offset="0.377" style="stop-color:#5CC4FF;stop-opacity:0.295"/>
	<stop  offset="0.4232" style="stop-color:#54C1FF;stop-opacity:0.372"/>
	<stop  offset="0.5" style="stop-color:#51C0FF;stop-opacity:0.5"/>
	<stop  offset="0.628" style="stop-color:#54C1FF;stop-opacity:0.372"/>
	<stop  offset="0.705" style="stop-color:#5CC4FF;stop-opacity:0.295"/>
	<stop  offset="0.7685" style="stop-color:#6AC9FF;stop-opacity:0.2315"/>
	<stop  offset="0.8247" style="stop-color:#7FD0FF;stop-opacity:0.1753"/>
	<stop  offset="0.876" style="stop-color:#99DAFF;stop-opacity:0.124"/>
	<stop  offset="0.9238" style="stop-color:#B9E6FF;stop-opacity:0.0762"/>
	<stop  offset="0.968" style="stop-color:#DFF3FF;stop-opacity:0.032"/>
	<stop  offset="1" style="stop-color:#FFFFFF;stop-opacity:0"/>
</linearGradient>
<path class="st3" d="M-64,742l80.82-334.01c7.03-29.05,44.95-28.61,51.42,0.59l19.14,86.4c6.42,29,43.99,29.7,51.33,0.97
	l84.34-330.26c7.24-28.34,44.11-28.19,51.15,0.21l24.58,99.12c7.01,28.25,43.63,28.59,51.08,0.47L444-90"/>
<linearGradient id="SVGID_3_" gradientUnits="userSpaceOnUse" x1="-189.0366" y1="293.9462" x2="309.9744" y2="293.9462" gradientTransform="matrix(-1 0 0 1 1213.5 0)">
	<stop  offset="0.35" style="stop-color:#FFFFFF;stop-opacity:0"/>
	<stop  offset="0.65" style="stop-color:#51C0FF;stop-opacity:0.5"/>
	<stop  offset="0.8" style="stop-color:#FFFFFF;stop-opacity:0"/>
</linearGradient>
<path class="st4" d="M1397.69,678l-77.85-308.32c-6.77-26.81-43.3-26.41-49.53,0.54l-18.44,79.75
	c-6.19,26.77-42.37,27.42-49.44,0.89l-81.24-304.86c-6.97-26.16-42.49-26.02-49.27,0.19l-23.68,91.49
	c-6.75,26.08-42.03,26.39-49.21,0.44L908.34-90"/>
</svg>
