<?xml version="1.0" encoding="utf-8"?>
<!-- Generator: Adobe Illustrator 24.0.0, SVG Export Plug-In . SVG Version: 6.00 Build 0)  -->
<svg version="1.1" id="Layer_1" xmlns="http://www.w3.org/2000/svg" xmlns:xlink="http://www.w3.org/1999/xlink" x="0px" y="0px"
	 viewBox="0 0 1920 1080" style="enable-background:new 0 0 1920 1080;" xml:space="preserve">
<style type="text/css">
	.st0{fill:#6900FF;}
	.st1{fill:url(#SVGID_1_);}
	.st2{fill:#9700FF;}
	.st3{fill:none;stroke:url(#SVGID_2_);stroke-width:10;stroke-miterlimit:10;}
	.st4{fill:none;stroke:url(#SVGID_3_);stroke-width:10;stroke-miterlimit:10;}
</style>
<g>
	<g>
		<path class="st0" d="M32.6,546.3c0.1,0,0.3,0,0.4,0c18.6,0.2,33.4,13,37.8,32.7l27.8,125.3c4.2,18.9,18.4,31.2,36.1,31.5
			c0.2,0-0.3,0-0.1,0c17.4,0,31.5-11.8,36.2-30.1l122.1-478.3c4.8-19,19.6-31.2,37.7-31.2c0,0-0.1,0,0,0
			c18.1,0.1,32.9,12.4,37.6,31.5l35.6,143.5c4.6,18.3,18.7,30.3,36.1,30.4c0.1,0,0.5,0,0.6,0c17.2,0,31.4-11.6,36.1-29.7l101.7-384
			H-28.9V676l23.7-97.9C-0.5,558.7,14.3,546.3,32.6,546.3z"/>
	</g>
	<g>
		
			<linearGradient id="SVGID_1_" gradientUnits="userSpaceOnUse" x1="-592.9059" y1="-771.645" x2="1383.136" y2="-771.645" gradientTransform="matrix(1 0 0 1 564 1314)">
			<stop  offset="0" style="stop-color:#3700FF"/>
			<stop  offset="0.6104" style="stop-color:#5900FF"/>
			<stop  offset="1" style="stop-color:#6900FF"/>
		</linearGradient>
		<path class="st1" d="M579.1-13.1L477.3,371.2c-5,18.7-19.7,30.8-37.5,30.8c-0.1,0,0.2,0,0.1,0c-18.1-0.1-32.8-12.5-37.5-31.5
			L366.8,227c-4.6-18.4-18.8-30.3-36.2-30.4c0,0,0,0,0,0c-17.4,0-31.6,11.8-36.3,30.1l-122,477.9c-4.9,19.2-20,31.5-38.2,31.2
			c-18.4-0.3-33.1-13.1-37.4-32.6l-27.7-125c-4.2-18.9-18.4-31.3-36.3-31.5c-0.1,0,0,0-0.1,0c-17.6,0-31.8,12-36.4,30.6l-25,103.4
			v417.1h1976v-1111H579.1z"/>
	</g>
	<path class="st2" d="M32.5,547.7c0.1,0,0.2,0,0.4,0c17.8,0.2,32.1,12.5,36.3,31.5l27.7,125c4.3,19.5,19,32.3,37.4,32.6
		c18.2,0.3,33.3-11.9,38.2-31.2l122-477.9c4.7-18.3,18.9-30.1,36.3-30.1c0,0-0.3,0-0.2,0c17.4,0.1,31.7,12,36.2,30.4l35.6,143.5
		c4.7,19,19.4,31.4,37.5,31.5c0.1,0,0.1,0,0.2,0c17.9,0,32.6-12,37.5-30.8L579.5-12.1H578l-101.7,384c-4.8,18.1-19,29.7-36.1,29.7
		c-0.1,0-0.1,0-0.2,0c-17.4-0.1-31.5-12.1-36.1-30.4l-35.6-143.5c-4.7-19.1-19.5-31.4-37.6-31.5c0,0,0.1,0,0,0
		c-18.1,0-32.8,12.2-37.7,31.2L170.8,705.7c-4.7,18.3-18.9,30.1-36.2,30.1c-0.2,0,0.3,0,0.1,0c-17.8-0.3-31.9-12.7-36.1-31.5
		L70.8,579c-4.4-19.7-19.2-32.5-37.8-32.7c-0.1,0-0.3,0-0.4,0c-18.3,0-33.2,12.4-37.9,31.8L-28.9,676v5.8l25.1-103.5
		C0.7,559.7,14.9,547.7,32.5,547.7z"/>
	
		<linearGradient id="SVGID_2_" gradientUnits="userSpaceOnUse" x1="-573.6251" y1="-847.067" x2="-82.1589" y2="-847.067" gradientTransform="matrix(1 0 0 1 564 1314)">
		<stop  offset="0.2" style="stop-color:#FFFFFF;stop-opacity:0"/>
		<stop  offset="0.2192" style="stop-color:#DFF3FF;stop-opacity:3.200000e-02"/>
		<stop  offset="0.2457" style="stop-color:#B9E6FF;stop-opacity:7.620000e-02"/>
		<stop  offset="0.2744" style="stop-color:#99DAFF;stop-opacity:0.124"/>
		<stop  offset="0.3052" style="stop-color:#7FD0FF;stop-opacity:0.1753"/>
		<stop  offset="0.3389" style="stop-color:#6AC9FF;stop-opacity:0.2315"/>
		<stop  offset="0.377" style="stop-color:#5CC4FF;stop-opacity:0.295"/>
		<stop  offset="0.4232" style="stop-color:#54C1FF;stop-opacity:0.372"/>
		<stop  offset="0.5" style="stop-color:#51C0FF;stop-opacity:0.5"/>
		<stop  offset="0.628" style="stop-color:#54C1FF;stop-opacity:0.372"/>
		<stop  offset="0.705" style="stop-color:#5CC4FF;stop-opacity:0.295"/>
		<stop  offset="0.7685" style="stop-color:#6AC9FF;stop-opacity:0.2315"/>
		<stop  offset="0.8247" style="stop-color:#7FD0FF;stop-opacity:0.1753"/>
		<stop  offset="0.876" style="stop-color:#99DAFF;stop-opacity:0.124"/>
		<stop  offset="0.9238" style="stop-color:#B9E6FF;stop-opacity:7.620000e-02"/>
		<stop  offset="0.968" style="stop-color:#DFF3FF;stop-opacity:3.200000e-02"/>
		<stop  offset="1" style="stop-color:#FFFFFF;stop-opacity:0"/>
	</linearGradient>
	<path class="st3" d="M-4.8,578.6c10.2-42,65-41.4,74.4,0.9l27.7,125c9.3,42,63.6,43,74.3,1.4l122-477.8c10.5-41,63.8-40.8,74,0.3
		l35.6,143.4c10.1,40.9,63.1,41.4,73.9,0.7"/>
	
		<linearGradient id="SVGID_3_" gradientUnits="userSpaceOnUse" x1="-107.517" y1="-893.9261" x2="366.2338" y2="-893.9261" gradientTransform="matrix(-1 0 0 1 1777.5 1314)">
		<stop  offset="0.35" style="stop-color:#FFFFFF;stop-opacity:0"/>
		<stop  offset="0.65" style="stop-color:#51C0FF;stop-opacity:0.5"/>
		<stop  offset="0.8" style="stop-color:#FFFFFF;stop-opacity:0"/>
	</linearGradient>
	<path class="st4" d="M1880.2,523.2c-9.8-38.8-62.6-38.2-71.7,0.8l-26.7,115.4c-9,38.7-61.3,39.7-71.5,1.3l-117.5-441
		c-10.1-37.8-61.5-37.6-71.3,0.3l-34.3,132.4c-9.8,37.7-60.8,38.2-71.2,0.6"/>
</g>
</svg>
