<?xml version="1.0" encoding="utf-8"?>
<!-- Generator: Adobe Illustrator 24.0.0, SVG Export Plug-In . SVG Version: 6.00 Build 0)  -->
<svg version="1.1" id="Layer_1" xmlns="http://www.w3.org/2000/svg" xmlns:xlink="http://www.w3.org/1999/xlink" x="0px" y="0px"
	 viewBox="0 0 815 224" style="enable-background:new 0 0 815 224;" xml:space="preserve">
<style type="text/css">
	.st0{fill:#FFFFFF;}
</style>
<path class="st0" d="M213.1,63.31L141.9,11.59c-14.85-10.79-34.96-10.79-49.81,0L20.9,63.31C6.05,74.1-0.16,93.22,5.51,110.68
	l27.19,83.69c5.67,17.46,21.94,29.28,40.29,29.28h88c18.35,0,34.62-11.82,40.29-29.28l27.19-83.69
	C234.16,93.22,227.95,74.1,213.1,63.31z M117,202.57c-44.18,0-80-35.82-80-80c0-44.18,35.82-80,80-80s80,35.82,80,80
	C197,166.76,161.18,202.57,117,202.57z"/>
<g>
	<path class="st0" d="M330.53,94.19c5.83,3.08,10.43,7.53,13.77,13.36c3.35,5.83,5.02,12.69,5.02,20.56s-1.67,14.7-5.02,20.49
		c-3.35,5.79-7.94,10.24-13.77,13.37c-5.83,3.12-12.42,4.68-19.74,4.68c-7.33,0-13.91-1.56-19.74-4.68
		c-5.83-3.12-10.43-7.58-13.77-13.37c-3.35-5.79-5.02-12.62-5.02-20.49s1.67-14.72,5.02-20.56c3.35-5.83,7.94-10.29,13.77-13.36
		c5.83-3.07,12.42-4.61,19.74-4.61C318.12,89.57,324.7,91.11,330.53,94.19z M297.22,111.76c-3.71,3.76-5.56,9.21-5.56,16.35
		c0,7.15,1.85,12.6,5.56,16.35c3.71,3.76,8.23,5.63,13.57,5.63c5.34,0,9.86-1.88,13.57-5.63c3.71-3.75,5.56-9.2,5.56-16.35
		c0-7.15-1.86-12.6-5.56-16.35c-3.71-3.75-8.23-5.63-13.57-5.63C305.45,106.13,300.93,108.01,297.22,111.76z"/>
	<path class="st0" d="M403.06,149.28v16.42h-10.04c-8.41,0-14.86-2.04-19.34-6.11c-4.48-4.07-6.72-10.86-6.72-20.35v-32.57h-10.45
		V90.52h10.45V71.93h19.13v18.59h16.83v16.15H386.1v32.84c0,3.62,0.72,6.15,2.17,7.6c1.45,1.45,3.89,2.17,7.33,2.17H403.06z"/>
	<path class="st0" d="M417.84,61.42c2.17-1.94,5.02-2.92,8.55-2.92s6.38,0.97,8.55,2.92c2.17,1.95,3.26,4.46,3.26,7.53
		c0,2.99-1.09,5.45-3.26,7.4c-2.17,1.95-5.02,2.92-8.55,2.92s-6.38-0.97-8.55-2.92c-2.17-1.94-3.26-4.41-3.26-7.4
		C414.59,65.87,415.67,63.36,417.84,61.42z M435.89,90.52v75.17h-19.13V90.52H435.89z"/>
	<path class="st0" d="M472.39,65.29v100.41h-19.13V65.29H472.39z"/>
	<path class="st0" d="M535.42,94.05c4.48,2.99,7.71,7.01,9.7,12.08V65.29h19v100.41h-19v-15.74c-1.99,5.07-5.22,9.11-9.7,12.14
		c-4.48,3.03-9.88,4.55-16.22,4.55c-6.33,0-12.03-1.54-17.1-4.61c-5.07-3.07-9.02-7.53-11.87-13.37
		c-2.85-5.83-4.27-12.69-4.27-20.56s1.42-14.72,4.27-20.56c2.85-5.83,6.81-10.29,11.87-13.36c5.06-3.07,10.76-4.61,17.1-4.61
		C525.53,89.57,530.94,91.07,535.42,94.05z M510.79,112.1c-3.62,3.89-5.43,9.23-5.43,16.01c0,6.78,1.81,12.1,5.43,15.94
		c3.62,3.85,8.41,5.77,14.38,5.77c5.79,0,10.56-1.97,14.31-5.9c3.75-3.93,5.63-9.2,5.63-15.81c0-6.69-1.88-12.01-5.63-15.94
		c-3.76-3.93-8.53-5.9-14.31-5.9C519.2,106.26,514.41,108.21,510.79,112.1z"/>
	<path class="st0" d="M627.21,94.05c4.52,2.99,7.73,7.01,9.63,12.08v-15.6h19v75.17h-19v-15.74c-1.9,5.07-5.11,9.11-9.63,12.14
		c-4.52,3.03-9.95,4.55-16.28,4.55c-6.33,0-12.03-1.54-17.1-4.61c-5.07-3.07-9.02-7.53-11.87-13.37
		c-2.85-5.83-4.27-12.69-4.27-20.56s1.42-14.72,4.27-20.56c2.85-5.83,6.81-10.29,11.87-13.36c5.06-3.07,10.76-4.61,17.1-4.61
		C617.26,89.57,622.69,91.07,627.21,94.05z M602.51,112.1c-3.62,3.89-5.43,9.23-5.43,16.01c0,6.78,1.81,12.1,5.43,15.94
		c3.62,3.85,8.41,5.77,14.38,5.77c5.79,0,10.56-1.97,14.31-5.9c3.75-3.93,5.63-9.2,5.63-15.81c0-6.69-1.88-12.01-5.63-15.94
		c-3.76-3.93-8.53-5.9-14.31-5.9C610.93,106.26,606.13,108.21,602.51,112.1z"/>
	<path class="st0" d="M689.08,145.75v19.95h-20.63v-19.95H689.08z"/>
	<path class="st0" d="M747.56,94.05c4.52,2.99,7.73,7.01,9.63,12.08v-15.6h19v75.17h-19v-15.74c-1.9,5.07-5.11,9.11-9.63,12.14
		c-4.52,3.03-9.95,4.55-16.28,4.55c-6.33,0-12.03-1.54-17.1-4.61c-5.07-3.07-9.02-7.53-11.87-13.37
		c-2.85-5.83-4.27-12.69-4.27-20.56s1.42-14.72,4.27-20.56c2.85-5.83,6.81-10.29,11.87-13.36c5.06-3.07,10.76-4.61,17.1-4.61
		C737.61,89.57,743.04,91.07,747.56,94.05z M722.87,112.1c-3.62,3.89-5.43,9.23-5.43,16.01c0,6.78,1.81,12.1,5.43,15.94
		c3.62,3.85,8.41,5.77,14.38,5.77c5.79,0,10.56-1.97,14.31-5.9c3.75-3.93,5.63-9.2,5.63-15.81c0-6.69-1.88-12.01-5.63-15.94
		c-3.76-3.93-8.53-5.9-14.31-5.9C731.28,106.26,726.49,108.21,722.87,112.1z"/>
	<path class="st0" d="M794.65,61.42c2.17-1.94,5.02-2.92,8.55-2.92c3.53,0,6.38,0.97,8.55,2.92c2.17,1.95,3.26,4.46,3.26,7.53
		c0,2.99-1.09,5.45-3.26,7.4c-2.17,1.95-5.02,2.92-8.55,2.92c-3.53,0-6.38-0.97-8.55-2.92c-2.17-1.94-3.26-4.41-3.26-7.4
		C791.39,65.87,792.48,63.36,794.65,61.42z M812.69,90.52v75.17h-19.13V90.52H812.69z"/>
</g>
</svg>
